<svg width="36" height="36" viewBox="0 0 36 36" fill="none" xmlns="http://www.w3.org/2000/svg">
<path d="M21.5455 2.49598C20.4895 2.16238 19.3663 1.97998 18.1999 1.97998C14.7967 1.97998 11.7511 3.51838 9.7207 5.93518L14.9527 10.3368L21.5455 2.49598Z" fill="#1A73E8"/>
<path d="M9.71745 5.9353C8.09985 7.8601 7.12305 10.3441 7.12305 13.0537C7.12305 15.1369 7.53825 16.8241 8.21985 18.3361L14.9494 10.3369L9.71745 5.9353Z" fill="#EA4335"/>
<path d="M18.1988 8.82009C20.5388 8.82009 22.4348 10.7161 22.4348 13.0561C22.4348 14.0977 22.058 15.0529 21.434 15.7897C21.434 15.7897 24.7796 11.8105 28.0268 7.95129C26.6852 5.37129 24.3596 3.38649 21.5468 2.49609L14.9492 10.3369C15.7268 9.40809 16.8932 8.82009 18.1988 8.82009Z" fill="#4285F4"/>
<path d="M18.1999 17.2897C15.8599 17.2897 13.9639 15.3937 13.9639 13.0537C13.9639 12.0193 14.3359 11.0713 14.9503 10.3345L8.2207 18.3361C9.3703 20.8873 11.2831 22.9345 13.2535 25.5145L21.4327 15.7897C20.6575 16.7065 19.4959 17.2897 18.1999 17.2897Z" fill="#FBBC04"/>
<path d="M21.2719 28.1688C24.9655 22.392 29.2735 19.7688 29.2735 13.0536C29.2735 11.2128 28.8223 9.47757 28.0279 7.95117L13.2559 25.5144C13.8823 26.3352 14.5135 27.2088 15.1303 28.1712C17.3767 31.6416 16.7527 33.7224 18.2023 33.7224C19.6471 33.7224 19.0255 31.6392 21.2719 28.1688Z" fill="#34A853"/>
</svg>
