<svg width="62" height="50" viewBox="0 0 62 50" fill="none" xmlns="http://www.w3.org/2000/svg">
<path d="M1.03333 10.3335C0.462933 10.3335 0 9.87054 0 9.30014C0 8.72974 0.462933 8.26681 1.03333 8.26681C30.7603 8.26681 48.7031 8.26681 53.9069 0.46101C54.1611 0.0807428 54.6323 -0.0887243 55.0663 0.0456091C55.5003 0.175809 55.8 0.576743 55.8 1.03348V6.20014C55.8 6.77054 55.3371 7.23348 54.7667 7.23348C54.1963 7.23348 53.7333 6.77054 53.7333 6.20014C53.7333 5.26124 52.5874 4.72003 51.7889 5.21386C43.5101 10.3335 26.4964 10.3335 1.03333 10.3335Z" fill="#F7F5F5"/>
<path d="M26.8233 14.5892C23.1446 14.5892 19.2055 14.5603 15.0164 14.5334C10.5669 14.5024 5.89207 14.4693 1.03333 14.4693C0.462933 14.4693 0 14.0064 0 13.436C0 12.8656 0.462933 12.4027 1.03333 12.4027C5.89827 12.4027 10.5772 12.4357 15.0288 12.4647C36.9189 12.6073 54.2066 12.7333 58.1498 8.58965C58.4433 8.28378 58.8917 8.18665 59.2823 8.34372C59.675 8.49872 59.9333 8.88105 59.9333 9.30265V13.436C59.9333 14.0064 59.4704 14.4693 58.9 14.4693C58.3296 14.4693 57.8667 14.0064 57.8667 13.436C57.8667 12.5014 56.8484 11.8826 55.9699 12.2014C50.4135 14.218 40.4147 14.5892 26.8233 14.5892Z" fill="#F7F5F5"/>
<path d="M1.03333 16.5342C0.462933 16.5342 0 16.9971 0 17.5675C0 18.1379 0.462933 18.6008 1.03333 18.6008H56.9333C58.5902 18.6008 59.9333 19.944 59.9333 21.6008V44.5342C59.9333 46.191 58.5902 47.5342 56.9333 47.5342H1.03333C0.462933 47.5342 0 47.9971 0 48.5675C0 49.1379 0.462933 49.6008 1.03333 49.6008H60.9667C61.5371 49.6008 62 49.1379 62 48.5675V17.5675C62 16.9971 61.5371 16.5342 60.9667 16.5342H1.03333Z" fill="#F7F5F5"/>
<path d="M0 21.7003V48.5691C0 49.1395 0.462933 49.6024 1.03333 49.6024C1.60373 49.6024 2.06667 49.1395 2.06667 48.5691V21.7003C2.06667 21.1299 1.60373 20.667 1.03333 20.667C0.462933 20.667 0 21.1299 0 21.7003Z" fill="#F7F5F5"/>
<path d="M25.8283 35.1395C25.2579 35.1395 24.7949 34.6766 24.7949 34.1062C24.7949 33.5358 25.2579 33.0728 25.8283 33.0728H32.0283C33.7374 33.0728 35.1283 31.682 35.1283 29.9728C35.1283 28.2637 33.7374 26.8728 32.0283 26.8728H27.8949C27.3242 26.8728 26.8616 26.4102 26.8616 25.8395C26.8616 25.2691 27.3245 24.8062 27.8949 24.8062H32.0283C34.8782 24.8062 37.1949 27.127 37.1949 29.9728C37.1949 32.8207 34.8782 35.1395 32.0283 35.1395H25.8283Z" fill="#F7F5F5"/>
<path d="M27.8986 43.4031C27.3282 43.4031 26.8652 42.9402 26.8652 42.3698V26.8698C26.8652 26.2994 27.3282 25.8364 27.8986 25.8364C28.469 25.8364 28.9319 26.2994 28.9319 26.8698V42.3698C28.9319 42.9402 28.469 43.4031 27.8986 43.4031Z" fill="#F7F5F5"/>
<path d="M34.0969 39.2693H25.8302C25.2598 39.2693 24.7969 38.8064 24.7969 38.236C24.7969 37.6656 25.2598 37.2026 25.8302 37.2026H34.0969C34.6673 37.2026 35.1302 37.6656 35.1302 38.236C35.1302 38.8064 34.6673 39.2693 34.0969 39.2693Z" fill="#F7F5F5"/>
</svg>
