<svg width="77" height="62" viewBox="0 0 77 62" fill="none" xmlns="http://www.w3.org/2000/svg">
<path d="M2 53.4048H65.5042V58.2911" stroke="black" stroke-width="2.5" stroke-miterlimit="2.6131" stroke-linecap="round" stroke-linejoin="round"/>
<path d="M65.5036 58.291C65.5036 59.4475 64.5587 60.3895 63.4082 60.3895" stroke="black" stroke-width="2.5" stroke-miterlimit="2.6131" stroke-linecap="round" stroke-linejoin="round"/>
<path d="M63.4096 60.3896H3.67773" stroke="black" stroke-width="2.5" stroke-miterlimit="2.6131" stroke-linecap="round" stroke-linejoin="round"/>
<path d="M3.67689 60.3894C2.75466 60.3894 2 59.6332 2 58.7109" stroke="black" stroke-width="2.5" stroke-miterlimit="2.6131" stroke-linecap="round" stroke-linejoin="round"/>
<path d="M2 58.7111V53.4048" stroke="black" stroke-width="2.5" stroke-miterlimit="2.6131" stroke-linecap="round" stroke-linejoin="round"/>
<path d="M21.7299 20.126H7.61719" stroke="black" stroke-width="2.5" stroke-miterlimit="2.6131" stroke-linecap="round" stroke-linejoin="round"/>
<path d="M7.61796 20.126C6.58476 20.126 5.74023 20.9705 5.74023 22.0008" stroke="black" stroke-width="2.5" stroke-miterlimit="2.6131" stroke-linecap="round" stroke-linejoin="round"/>
<path d="M5.74023 22.0005V53.4049H61.7634V41.8487" stroke="black" stroke-width="2.5" stroke-miterlimit="2.6131" stroke-linecap="round" stroke-linejoin="round"/>
<path d="M43.7076 20.126H30.9844" stroke="black" stroke-width="2.5" stroke-miterlimit="2.6131" stroke-linecap="round" stroke-linejoin="round"/>
<path d="M60.2476 20.126H48.9395" stroke="black" stroke-width="2.5" stroke-miterlimit="2.6131" stroke-linecap="round" stroke-linejoin="round"/>
<path d="M61.7637 35.9306V25.5752" stroke="black" stroke-width="2.5" stroke-miterlimit="2.6131" stroke-linecap="round" stroke-linejoin="round"/>
<path d="M5.08203 56.8975H25.6622" stroke="black" stroke-width="2.5" stroke-miterlimit="2.6131" stroke-linecap="round" stroke-linejoin="round"/>
<path d="M55.2348 57.34C55.48 57.34 55.6777 57.1392 55.6777 56.8973C55.6777 56.6507 55.4798 56.4546 55.2348 56.4546C54.9899 56.4546 54.7891 56.6509 54.7891 56.8973C54.7891 57.1392 54.9899 57.34 55.2348 57.34Z" stroke="black" stroke-width="2.5" stroke-miterlimit="2.6131" stroke-linecap="round" stroke-linejoin="round"/>
<path d="M58.5605 57.34C58.8071 57.34 59.0065 57.1392 59.0065 56.8973C59.0065 56.6507 58.8071 56.4546 58.5605 56.4546C58.3171 56.4546 58.1191 56.6509 58.1191 56.8973C58.1191 57.1392 58.3171 57.34 58.5605 57.34Z" stroke="black" stroke-width="2.5" stroke-miterlimit="2.6131" stroke-linecap="round" stroke-linejoin="round"/>
<path d="M61.6108 57.34C61.8558 57.34 62.0566 57.1392 62.0566 56.8973C62.0566 56.6507 61.8558 56.4546 61.6108 56.4546C61.3688 56.4546 61.168 56.6509 61.168 56.8973C61.1678 57.1392 61.3688 57.34 61.6108 57.34Z" stroke="black" stroke-width="2.5" stroke-miterlimit="2.6131" stroke-linecap="round" stroke-linejoin="round"/>
<path d="M51.2325 36.3563C51.2325 40.4424 47.9196 43.7566 43.8352 43.7566C39.7507 43.7566 36.4395 40.4422 36.4395 36.3563C36.4395 32.2735 39.7507 28.959 43.8352 28.959C47.9196 28.959 51.2325 32.2735 51.2325 36.3563Z" stroke="black" stroke-width="2.5" stroke-miterlimit="2.6131" stroke-linecap="round" stroke-linejoin="round"/>
<path d="M48.9794 7.14196C48.9794 9.98312 46.6755 12.2825 43.8358 12.2825C40.9947 12.2825 38.6953 9.98312 38.6953 7.14196C38.6953 4.3008 40.9947 2 43.8358 2C46.6753 2 48.9794 4.3008 48.9794 7.14196Z" stroke="black" stroke-width="2.5" stroke-miterlimit="2.6131" stroke-linecap="round" stroke-linejoin="round"/>
<path d="M75.0004 36.3563C75.0004 39.1975 72.698 41.4999 69.8568 41.4999C67.0156 41.4999 64.7148 39.1975 64.7148 36.3563C64.7148 33.5182 67.0158 31.2158 69.8568 31.2158C72.6978 31.2158 75.0004 33.5182 75.0004 36.3563Z" stroke="black" stroke-width="2.5" stroke-miterlimit="2.6131" stroke-linecap="round" stroke-linejoin="round"/>
<path d="M70.2085 14.0125C70.2085 15.9161 68.6655 17.4623 66.7587 17.4623C64.8503 17.4623 63.3027 15.9163 63.3027 14.0125C63.3027 12.1041 64.8503 10.5596 66.7587 10.5596C68.6655 10.5596 70.2085 12.1041 70.2085 14.0125Z" stroke="black" stroke-width="2.5" stroke-miterlimit="2.6131" stroke-linecap="round" stroke-linejoin="round"/>
<path d="M17.5315 13.2185C17.5315 15.1267 15.9839 16.6713 14.0787 16.6713C12.1703 16.6713 10.6289 15.1267 10.6289 13.2185C10.6289 11.3132 12.1703 9.76563 14.0787 9.76563C15.9839 9.76546 17.5315 11.3131 17.5315 13.2185Z" stroke="black" stroke-width="2.5" stroke-miterlimit="2.6131" stroke-linecap="round" stroke-linejoin="round"/>
<path d="M49.8809 31.852L64.4822 16.6709" stroke="black" stroke-width="2.5" stroke-miterlimit="2.6131" stroke-linecap="round" stroke-linejoin="round"/>
<path d="M43.8359 28.7356V12.4102" stroke="black" stroke-width="2.5" stroke-miterlimit="2.6131" stroke-linecap="round" stroke-linejoin="round"/>
<path d="M51.2324 36.3564H61.559H64.7137" stroke="black" stroke-width="2.5" stroke-miterlimit="2.6131" stroke-linecap="round" stroke-linejoin="round"/>
<path d="M16.6836 15.562L37.6382 31.9726" stroke="black" stroke-width="2.5" stroke-miterlimit="2.6131" stroke-linecap="round" stroke-linejoin="round"/>
</svg>
