<svg width="49" height="53" viewBox="0 0 49 53" fill="none" xmlns="http://www.w3.org/2000/svg">
<path d="M42.3844 48.7959C42.3844 50.5528 40.9386 52.0001 39.1816 52.0001" stroke="#F7F5F5" stroke-width="2" stroke-miterlimit="2.6131" stroke-linecap="round" stroke-linejoin="round"/>
<path d="M39.1798 51.999H4.20312" stroke="#F7F5F5" stroke-width="2" stroke-miterlimit="2.6131" stroke-linecap="round" stroke-linejoin="round"/>
<path d="M4.20431 52.0001C2.44893 52.0001 1 50.5605 1 48.7959" stroke="#F7F5F5" stroke-width="2" stroke-miterlimit="2.6131" stroke-linecap="round" stroke-linejoin="round"/>
<path d="M1 48.7953V13.8296L14.8684 1H39.1809" stroke="#F7F5F5" stroke-width="2" stroke-miterlimit="2.6131" stroke-linecap="round" stroke-linejoin="round"/>
<path d="M39.1816 1C40.9464 1 42.3844 2.44893 42.3844 4.20273" stroke="#F7F5F5" stroke-width="2" stroke-miterlimit="2.6131" stroke-linecap="round" stroke-linejoin="round"/>
<path d="M42.3848 4.20312V25.4089" stroke="#F7F5F5" stroke-width="2" stroke-miterlimit="2.6131" stroke-linecap="round" stroke-linejoin="round"/>
<path d="M15.5039 1V12.8286" stroke="#F7F5F5" stroke-width="2" stroke-miterlimit="2.6131" stroke-linecap="round" stroke-linejoin="round"/>
<path d="M15.5059 12.8286C15.5059 13.7668 14.7327 14.5431 13.793 14.5431" stroke="#F7F5F5" stroke-width="2" stroke-miterlimit="2.6131" stroke-linecap="round" stroke-linejoin="round"/>
<path d="M13.792 14.5439H1" stroke="#F7F5F5" stroke-width="2" stroke-miterlimit="2.6131" stroke-linecap="round" stroke-linejoin="round"/>
<path d="M23.6777 6.43799H35.9779" stroke="#F7F5F5" stroke-width="2" stroke-miterlimit="2.6131" stroke-linecap="round" stroke-linejoin="round"/>
<path d="M35.9785 6.43799C36.395 6.43799 36.7408 6.81515 36.7408 7.26927" stroke="#F7F5F5" stroke-width="2" stroke-miterlimit="2.6131" stroke-linecap="round" stroke-linejoin="round"/>
<path d="M36.7422 7.26855V14.2946" stroke="#F7F5F5" stroke-width="2" stroke-miterlimit="2.6131" stroke-linecap="round" stroke-linejoin="round"/>
<path d="M36.7408 14.2944C36.7408 14.7533 36.395 15.1257 35.9785 15.1257" stroke="#F7F5F5" stroke-width="2" stroke-miterlimit="2.6131" stroke-linecap="round" stroke-linejoin="round"/>
<path d="M35.9779 15.1265H23.6777" stroke="#F7F5F5" stroke-width="2" stroke-miterlimit="2.6131" stroke-linecap="round" stroke-linejoin="round"/>
<path d="M23.6778 15.1257C23.2565 15.1257 22.9141 14.7533 22.9141 14.2944" stroke="#F7F5F5" stroke-width="2" stroke-miterlimit="2.6131" stroke-linecap="round" stroke-linejoin="round"/>
<path d="M22.9141 14.2946V7.26855" stroke="#F7F5F5" stroke-width="2" stroke-miterlimit="2.6131" stroke-linecap="round" stroke-linejoin="round"/>
<path d="M22.9141 7.26927C22.9141 6.81515 23.2565 6.43799 23.6778 6.43799" stroke="#F7F5F5" stroke-width="2" stroke-miterlimit="2.6131" stroke-linecap="round" stroke-linejoin="round"/>
<path d="M6.06055 23.2324H36.81" stroke="#F7F5F5" stroke-width="2" stroke-miterlimit="2.6131" stroke-linecap="round" stroke-linejoin="round"/>
<path d="M6.06055 33.8926H27.2066" stroke="#F7F5F5" stroke-width="2" stroke-miterlimit="2.6131" stroke-linecap="round" stroke-linejoin="round"/>
<path d="M6.06055 44.5562H28.7184" stroke="#F7F5F5" stroke-width="2" stroke-miterlimit="2.6131" stroke-linecap="round" stroke-linejoin="round"/>
<path d="M47.3404 36.8901C47.3404 41.0058 44.0042 44.3453 39.8885 44.3453C35.7696 44.3453 32.4316 41.0058 32.4316 36.8901C32.4316 32.7712 35.7696 29.4365 39.8885 29.4365C41.2541 29.4365 42.5333 29.8042 43.6364 30.4454" stroke="#F7F5F5" stroke-width="2" stroke-miterlimit="2.6131" stroke-linecap="round" stroke-linejoin="round"/>
<path d="M36.6133 36.1494L40.4006 39.6209" stroke="#F7F5F5" stroke-width="2" stroke-miterlimit="2.6131" stroke-linecap="round" stroke-linejoin="round"/>
<path d="M47.3364 32.0435L40.3984 39.6211" stroke="#F7F5F5" stroke-width="2" stroke-miterlimit="2.6131" stroke-linecap="round" stroke-linejoin="round"/>
</svg>
